{"glyphs":{":":{"x_min":0,"x_max":225,"ha":225,"o":"m 113 268 q 80 268 58 291 q 36 314 36 345 q 36 377 58 400 q 80 422 113 422 q 144 422 166 400 q 189 377 189 345 q 189 314 166 291 q 144 268 113 268 z m 113 -6 q 80 -6 58 17 q 36 40 36 71 q 36 103 58 126 q 80 148 113 148 q 144 148 166 126 q 189 103 189 71 q 189 40 166 17 q 144 -6 113 -6 z"},"$":{"x_min":0,"x_max":541,"ha":541,"o":"m 280 -52 q 264 -52 253 -44 q 242 -35 242 -25 l 242 0 q 182 2 132 21 q 83 40 54 69 q 24 98 24 130 q 24 147 33 166 q 42 186 58 200 q 73 214 92 214 q 108 214 123 205 q 138 196 155 183 q 172 170 193 158 q 214 147 242 142 l 242 304 q 208 317 172 333 q 137 349 108 372 q 78 395 60 428 q 42 462 42 510 q 42 558 58 594 q 74 629 102 654 q 130 678 166 692 q 202 707 242 713 l 242 741 q 242 752 253 760 q 264 768 280 768 q 294 768 306 760 q 318 752 318 741 l 318 716 q 341 715 372 711 q 402 707 430 698 q 459 688 478 672 q 497 655 497 629 q 497 616 490 596 q 484 577 470 562 q 457 547 435 547 q 419 547 404 555 q 390 563 370 572 q 351 582 318 584 l 318 438 q 352 425 387 408 q 422 392 451 368 q 480 344 498 308 q 515 273 515 222 q 515 129 460 74 q 406 18 318 4 l 318 -25 q 318 -35 306 -44 q 294 -52 280 -52 z m 308 143 q 334 149 352 164 q 369 179 369 206 q 369 223 362 236 q 354 248 340 258 q 326 269 308 277 z m 252 462 l 252 581 q 230 577 216 568 q 201 559 194 548 q 188 537 188 525 q 188 511 196 500 q 204 488 218 479 q 233 470 252 462 z"},"?":{"x_min":0,"x_max":453,"ha":453,"o":"m 203 217 q 172 217 160 231 q 148 245 148 284 q 148 327 158 356 q 169 385 185 404 q 201 424 215 436 q 227 447 242 458 q 258 469 272 482 q 286 496 295 512 q 304 529 304 549 q 304 584 278 600 q 252 617 214 617 q 176 617 157 606 q 138 594 129 578 q 120 563 110 552 q 100 540 80 540 q 60 540 40 554 q 20 568 20 597 q 20 624 41 656 q 62 687 106 709 q 150 731 217 731 q 281 731 329 710 q 377 688 404 650 q 430 613 430 566 q 430 531 416 501 q 403 471 384 447 q 365 423 346 407 q 328 391 318 383 q 291 362 279 343 q 267 324 264 304 q 262 284 262 258 q 262 244 251 230 q 240 217 203 217 z m 204 -6 q 172 -6 150 17 q 128 40 128 71 q 128 103 150 126 q 173 148 204 148 q 236 148 258 126 q 281 103 281 71 q 281 40 258 17 q 236 -6 204 -6 z"},"<":{"x_min":0,"x_max":427,"ha":427,"o":"m 323 51 q 310 51 304 56 l 50 221 q 33 232 26 248 q 19 264 19 277 q 19 290 26 306 q 33 322 50 333 l 304 498 q 310 503 323 503 q 346 503 368 482 q 391 461 391 430 q 391 402 373 391 l 197 277 l 373 163 q 391 152 391 124 q 391 93 368 72 q 346 51 323 51 z"},"'":{"x_min":0,"x_max":155,"ha":155,"o":"m 77 559 q 53 559 43 571 q 33 583 33 597 l 23 731 q 23 748 40 758 q 56 768 77 768 q 98 768 115 758 q 132 748 132 731 l 122 597 q 122 583 112 571 q 101 559 77 559 z"},"=":{"x_min":0,"x_max":448,"ha":448,"o":"m 94 275 q 73 275 60 292 q 47 310 47 338 q 47 365 60 384 q 73 402 94 402 l 354 402 q 372 402 387 384 q 402 365 402 338 q 402 310 387 292 q 372 275 354 275 z m 94 72 q 73 72 60 90 q 47 107 47 135 q 47 162 60 180 q 73 199 94 199 l 354 199 q 372 199 387 180 q 402 162 402 135 q 402 107 387 90 q 372 72 354 72 z"},"a":{"x_min":0,"x_max":484,"ha":484,"o":"m 146 -10 q 94 -10 56 22 q 18 55 18 123 q 18 182 48 215 q 78 248 130 261 q 183 274 252 274 l 288 274 l 288 284 q 288 301 281 318 q 274 335 258 346 q 242 358 213 358 q 172 358 152 350 q 132 342 121 334 q 110 325 96 325 q 71 325 58 350 q 44 375 44 402 q 44 426 72 444 q 99 462 138 472 q 178 482 215 482 q 297 482 347 454 q 397 426 420 382 q 443 337 443 286 l 443 48 q 443 28 422 14 q 400 0 367 0 q 338 0 318 14 q 298 28 298 48 l 298 70 q 271 39 235 14 q 199 -10 146 -10 z m 213 103 q 229 103 246 116 q 263 128 276 149 q 288 170 288 195 l 288 199 l 284 199 q 256 199 230 196 q 205 192 190 180 q 174 169 174 145 q 174 123 185 113 q 196 103 213 103 z"},"L":{"x_min":0,"x_max":492,"ha":492,"o":"m 122 0 q 97 0 76 12 q 54 24 54 48 l 54 684 q 54 709 78 720 q 103 731 132 731 q 161 731 186 720 q 210 709 210 684 l 210 136 l 438 136 q 461 136 472 115 q 483 94 483 68 q 483 43 472 22 q 461 0 438 0 z"},"3":{"x_min":0,"x_max":534,"ha":534,"o":"m 254 -6 q 190 -6 144 12 q 99 29 70 57 q 42 85 29 118 q 16 152 16 183 q 16 217 32 228 q 49 240 90 240 q 138 240 154 228 q 170 217 170 188 q 170 170 178 159 q 185 148 198 142 q 210 135 226 132 q 242 130 259 130 q 310 130 330 150 q 351 171 351 220 l 351 239 q 351 289 324 304 q 296 319 255 319 q 230 319 220 338 q 210 357 210 379 q 210 402 220 420 q 230 439 255 439 q 274 439 292 444 q 310 448 322 466 q 333 485 333 525 q 333 569 312 583 q 290 597 259 597 q 241 597 227 594 q 213 592 204 586 q 194 580 190 570 q 185 561 185 546 q 185 521 170 505 q 156 489 112 489 q 76 489 59 494 q 42 500 36 514 q 31 528 31 552 q 31 581 42 612 q 54 644 80 671 q 107 698 151 714 q 195 731 259 731 q 323 731 373 714 q 423 697 452 658 q 482 618 482 550 q 482 495 462 449 q 443 403 405 386 q 449 370 478 335 q 507 300 507 239 l 507 220 q 507 138 473 88 q 439 39 382 16 q 324 -6 254 -6 z"},";":{"x_min":0,"x_max":225,"ha":225,"o":"m 94 -106 q 78 -106 61 -96 q 44 -86 44 -67 q 44 -59 48 -51 l 73 3 q 55 14 44 32 q 33 49 33 71 q 33 103 56 126 q 78 148 109 148 q 141 148 164 126 q 186 103 186 72 q 186 68 184 61 q 183 54 177 39 q 171 24 158 -6 q 146 -37 124 -88 q 120 -98 111 -102 q 102 -106 94 -106 z m 116 268 q 83 268 61 291 q 39 314 39 345 q 39 377 61 400 q 83 422 116 422 q 147 422 170 400 q 192 377 192 345 q 192 314 170 291 q 147 268 116 268 z"},"J":{"x_min":0,"x_max":548,"ha":548,"o":"m 257 -6 q 186 -6 129 18 q 72 43 39 90 q 6 137 6 203 q 6 248 26 262 q 45 277 85 277 q 115 277 138 268 q 160 258 162 230 q 164 211 169 188 q 174 164 192 147 q 210 130 250 130 q 294 130 318 154 q 341 179 341 230 l 341 595 l 254 595 q 232 595 220 616 q 207 636 207 664 q 207 688 218 710 q 229 731 254 731 l 429 731 q 455 731 476 719 q 497 707 497 683 l 497 230 q 497 144 464 92 q 432 40 378 17 q 323 -6 257 -6 z"},"V":{"x_min":0,"x_max":589,"ha":589,"o":"m 295 -6 q 261 -6 231 7 q 201 20 193 46 l 6 656 q 4 664 4 667 q 4 686 20 700 q 36 714 60 722 q 83 731 104 731 q 123 731 137 724 q 151 718 155 702 l 295 189 l 434 702 q 439 718 452 724 q 466 731 485 731 q 507 731 530 722 q 553 714 569 700 q 585 686 585 667 q 585 665 584 662 q 584 659 583 656 l 397 46 q 389 20 360 7 q 330 -6 295 -6 z"},"\"":{"x_min":0,"x_max":315,"ha":315,"o":"m 237 559 q 213 559 203 571 q 193 583 193 597 l 183 731 q 183 748 200 758 q 216 768 237 768 q 258 768 275 758 q 292 748 292 731 l 282 597 q 282 583 272 571 q 261 559 237 559 z m 77 559 q 53 559 43 571 q 33 583 33 597 l 23 731 q 23 748 40 758 q 56 768 77 768 q 98 768 115 758 q 132 748 132 731 l 122 597 q 122 583 112 571 q 101 559 77 559 z"},"7":{"x_min":0,"x_max":512,"ha":512,"o":"m 193 -6 q 169 -6 146 4 q 123 15 108 33 q 94 51 94 73 q 94 86 101 99 l 347 525 l 347 595 l 168 595 l 168 528 q 168 508 144 494 q 120 480 89 480 q 58 480 35 494 q 12 508 12 528 l 12 683 q 12 701 34 716 q 55 731 80 731 l 435 731 q 458 731 480 716 q 503 701 503 683 l 503 558 q 503 539 493 512 q 483 486 471 463 l 237 15 q 226 -6 193 -6 z"},"S":{"x_min":0,"x_max":533,"ha":533,"o":"m 260 -10 q 195 -10 140 9 q 85 28 52 58 q 19 87 19 120 q 19 137 28 156 q 37 176 52 190 q 68 204 87 204 q 105 204 120 193 q 136 182 154 167 q 173 152 198 141 q 222 130 257 130 q 280 130 302 136 q 325 143 340 158 q 354 172 354 196 q 354 222 337 240 q 320 259 292 274 q 263 289 230 304 q 196 320 162 338 q 128 357 100 382 q 71 408 54 444 q 37 480 37 530 q 37 586 59 626 q 81 665 118 690 q 155 714 200 726 q 246 737 293 737 q 313 737 346 734 q 379 731 412 722 q 446 713 469 696 q 492 678 492 649 q 492 636 486 616 q 479 597 466 582 q 452 567 430 567 q 412 567 396 576 q 381 586 358 596 q 334 605 293 605 q 258 605 236 596 q 213 588 203 574 q 193 561 193 545 q 193 524 210 508 q 227 493 256 480 q 284 466 318 452 q 351 437 385 418 q 419 398 448 371 q 476 344 493 305 q 510 266 510 212 q 510 140 478 90 q 445 41 389 16 q 333 -10 260 -10 z"},"}":{"x_min":0,"x_max":380,"ha":380,"o":"m 101 -20 q 58 -20 35 -4 q 12 12 12 46 q 12 59 16 74 q 20 89 30 100 q 41 111 59 111 q 72 111 90 114 q 107 116 124 122 q 140 127 151 138 q 162 148 162 164 q 162 172 160 193 q 157 214 154 240 q 152 266 150 288 q 147 311 147 320 q 147 343 160 362 q 173 381 183 384 q 174 387 160 407 q 147 427 147 449 q 147 458 150 474 q 152 491 154 510 q 157 530 160 546 q 162 563 162 572 q 162 599 142 613 q 123 627 98 632 q 74 637 59 637 q 35 637 24 658 q 12 678 12 700 q 12 724 30 746 q 47 768 99 768 q 139 768 178 754 q 217 739 248 714 q 280 690 299 658 q 318 627 318 593 q 318 581 316 563 q 313 545 310 526 q 308 508 306 492 q 303 477 303 469 q 303 454 312 448 q 321 443 333 439 q 345 435 354 424 q 363 413 363 387 q 363 360 354 349 q 345 338 333 334 q 321 329 312 323 q 303 317 303 301 q 303 294 304 280 q 306 265 308 246 q 311 228 313 208 q 315 188 316 172 q 318 155 318 144 q 318 96 286 59 q 253 22 204 1 q 154 -20 101 -20 z"},"Z":{"x_min":0,"x_max":536,"ha":536,"o":"m 54 0 q 30 0 20 12 q 9 23 9 41 q 9 67 26 96 l 308 595 l 76 595 q 54 595 42 616 q 29 636 29 663 q 29 688 40 710 q 51 731 76 731 l 462 731 q 485 731 496 720 q 507 708 507 690 q 507 666 490 635 l 208 136 l 480 136 q 503 136 515 114 q 527 92 527 68 q 527 44 515 22 q 503 0 480 0 z"},"x":{"x_min":0,"x_max":493,"ha":493,"o":"m 118 -10 q 102 -10 78 2 q 55 13 36 31 q 18 49 18 67 q 18 80 27 93 l 140 243 l 38 379 q 35 383 32 390 q 28 397 28 404 q 28 422 46 440 q 64 458 88 470 q 113 482 133 482 q 138 482 148 480 q 159 477 166 466 l 246 335 l 327 465 q 333 475 344 478 q 354 482 362 482 q 380 482 404 470 q 429 458 447 440 q 465 422 465 404 q 465 393 455 379 l 352 242 l 466 93 q 469 89 472 82 q 475 75 475 67 q 475 51 458 33 q 441 15 418 2 q 394 -10 373 -10 q 364 -10 354 -6 q 344 -3 338 6 l 246 144 l 155 6 q 149 -2 138 -6 q 126 -10 118 -10 z"},")":{"x_min":0,"x_max":358,"ha":358,"o":"m 95 -20 q 43 -20 28 -2 q 14 17 14 46 q 14 72 23 94 q 32 115 61 115 q 83 115 106 120 q 128 124 144 136 q 159 149 159 173 l 159 561 q 159 579 148 596 q 136 612 114 622 q 93 633 61 633 q 40 633 27 652 q 14 670 14 701 q 14 729 30 748 q 45 768 91 768 q 129 768 168 754 q 208 740 241 713 q 274 686 294 648 q 315 609 315 561 l 315 173 q 315 121 295 84 q 275 47 242 24 q 209 1 170 -10 q 132 -20 95 -20 z"},"&":{"x_min":0,"x_max":655,"ha":655,"o":"m 278 -10 q 199 -10 140 21 q 82 52 50 103 q 18 154 18 213 q 18 257 34 296 q 51 336 78 368 q 106 399 138 418 q 110 449 92 483 q 73 517 73 563 q 73 622 102 663 q 132 704 182 726 q 233 748 294 748 q 357 748 404 728 q 452 708 478 679 q 504 650 504 623 q 504 596 480 574 q 457 551 430 551 q 411 551 398 562 q 385 573 372 588 q 359 602 342 613 q 324 624 295 624 q 263 624 240 607 q 217 590 217 556 q 217 528 236 500 q 254 472 279 447 q 304 422 324 401 l 468 252 q 482 287 482 316 q 483 346 485 367 q 488 388 501 400 q 514 411 554 411 q 595 411 608 392 q 620 373 620 340 q 620 313 614 282 q 607 251 594 219 q 582 187 562 156 l 638 78 q 643 72 645 66 q 647 59 647 53 q 647 30 624 10 q 602 -10 575 -10 q 565 -10 556 -6 q 548 -2 537 8 l 483 63 q 443 30 392 10 q 341 -10 278 -10 z m 295 125 q 327 125 351 134 q 375 142 392 157 l 225 328 q 211 316 200 300 q 188 285 182 266 q 175 248 175 226 q 175 197 189 174 q 203 151 230 138 q 256 125 295 125 z"},"_":{"x_min":0,"x_max":306,"ha":306,"o":"m -7 -127 q -28 -127 -41 -110 q -54 -92 -54 -64 q -54 -37 -41 -18 q -28 0 -7 0 l 313 0 q 331 0 346 -18 q 361 -37 361 -64 q 361 -92 346 -110 q 331 -127 313 -127 z"},"v":{"x_min":0,"x_max":503,"ha":503,"o":"m 252 -13 q 229 -13 208 -6 q 188 1 182 14 l 6 399 q 4 403 2 408 q 1 414 1 418 q 1 436 19 451 q 37 466 62 474 q 86 483 106 483 q 120 483 132 478 q 144 472 149 458 l 252 197 l 355 458 q 360 472 372 478 q 383 483 397 483 q 413 483 438 474 q 463 465 482 450 q 502 435 502 417 q 502 412 501 408 q 500 404 498 399 l 322 14 q 316 1 296 -6 q 275 -13 252 -13 z"},"O":{"x_min":0,"x_max":583,"ha":583,"o":"m 291 -6 q 222 -6 166 17 q 111 40 78 92 q 46 144 46 230 l 46 495 q 46 581 78 633 q 111 685 166 708 q 222 731 291 731 q 360 731 416 708 q 472 685 504 633 q 537 581 537 495 l 537 230 q 537 144 504 92 q 472 40 416 17 q 360 -6 291 -6 z m 291 130 q 333 130 357 154 q 381 178 381 230 l 381 495 q 381 547 357 571 q 333 595 291 595 q 249 595 226 571 q 202 547 202 495 l 202 230 q 202 178 226 154 q 249 130 291 130 z"},"(":{"x_min":0,"x_max":358,"ha":358,"o":"m 263 -20 q 226 -20 188 -10 q 149 1 116 24 q 83 47 63 84 q 43 121 43 173 l 43 561 q 43 609 64 648 q 84 686 117 713 q 150 740 190 754 q 229 768 267 768 q 314 768 329 748 q 344 729 344 701 q 344 670 331 652 q 318 633 297 633 q 266 633 244 622 q 222 612 210 596 q 199 579 199 561 l 199 173 q 199 149 214 136 q 230 124 253 120 q 276 115 297 115 q 326 115 335 94 q 344 72 344 46 q 344 17 330 -2 q 316 -20 263 -20 z"},"C":{"x_min":0,"x_max":562,"ha":562,"o":"m 286 -6 q 221 -6 166 17 q 111 40 78 92 q 46 144 46 230 l 46 495 q 46 581 78 633 q 111 685 166 708 q 221 731 286 731 q 358 731 414 708 q 471 684 504 640 q 537 596 537 532 q 537 487 518 472 q 499 458 459 458 q 428 458 406 468 q 383 478 381 505 q 381 515 378 530 q 376 545 368 560 q 360 575 342 585 q 324 595 292 595 q 249 595 226 570 q 202 546 202 495 l 202 230 q 202 179 226 154 q 250 130 293 130 q 323 130 340 140 q 358 150 366 166 q 374 181 377 198 q 380 215 381 230 q 383 258 406 268 q 428 277 458 277 q 499 277 518 262 q 537 248 537 203 q 537 137 504 90 q 471 43 414 18 q 358 -6 286 -6 z"},"W":{"x_min":0,"x_max":920,"ha":920,"o":"m 307 -6 q 273 -6 242 7 q 212 20 204 46 l 5 656 q 3 662 3 669 q 3 686 19 700 q 35 714 58 722 q 82 731 104 731 q 122 731 136 724 q 150 718 154 702 l 306 189 l 385 527 q 390 547 412 558 q 435 568 460 568 q 486 568 508 558 q 531 547 535 527 l 614 189 l 766 702 q 771 718 784 724 q 798 731 816 731 q 839 731 862 722 q 885 714 901 700 q 917 686 917 669 q 917 662 915 656 l 716 46 q 707 20 678 7 q 648 -6 613 -6 q 579 -6 548 7 q 518 20 512 46 l 460 283 l 408 46 q 402 20 372 7 q 341 -6 307 -6 z"},"A":{"x_min":0,"x_max":589,"ha":589,"o":"m 104 0 q 83 0 60 8 q 36 17 20 32 q 4 46 4 64 q 4 67 6 75 l 192 685 q 200 711 230 724 q 260 737 294 737 q 329 737 358 724 q 388 711 396 685 l 583 75 q 585 67 585 64 q 585 46 569 32 q 553 17 530 8 q 507 0 485 0 q 466 0 452 6 q 439 13 434 29 l 400 154 l 189 154 l 155 29 q 151 13 137 6 q 123 0 104 0 z m 221 274 l 367 274 l 294 542 z"},"f":{"x_min":0,"x_max":354,"ha":354,"o":"m 122 0 q 90 0 68 13 q 46 26 46 47 l 46 547 q 46 605 70 650 q 94 696 134 722 q 174 748 222 748 l 294 748 q 323 748 338 728 q 352 707 352 683 q 352 658 338 638 q 323 618 294 618 l 256 618 q 240 618 228 612 q 215 606 208 594 q 201 583 201 564 l 201 476 l 314 476 q 333 476 342 458 q 352 441 352 421 q 352 400 342 383 q 333 366 314 366 l 201 366 l 201 47 q 201 26 178 13 q 154 0 122 0 z"},"Q":{"x_min":0,"x_max":583,"ha":583,"o":"m 291 -109 q 273 -109 258 -97 q 243 -85 243 -61 l 243 -3 q 186 4 142 30 q 97 56 72 105 q 46 154 46 230 l 46 495 q 46 582 78 634 q 111 685 166 708 q 222 731 291 731 q 360 731 416 708 q 472 685 504 634 q 537 582 537 495 l 537 230 q 537 154 512 105 q 486 56 441 30 q 396 4 339 -3 l 339 -61 q 339 -85 324 -97 q 309 -109 291 -109 z m 243 140 l 243 184 q 243 209 258 220 q 273 231 291 231 q 309 231 324 220 q 339 209 339 184 l 339 140 q 359 151 370 174 q 381 196 381 230 l 381 495 q 381 546 357 570 q 333 595 291 595 q 249 595 226 570 q 202 546 202 495 l 202 230 q 202 196 212 174 q 223 151 243 140 z"},"w":{"x_min":0,"x_max":702,"ha":702,"o":"m 220 -13 q 201 -13 184 -7 q 167 -1 161 14 l 7 399 q 4 407 3 412 q 2 416 2 420 q 2 438 19 452 q 36 466 60 474 q 84 482 104 482 q 119 482 131 476 q 143 471 147 458 l 236 204 l 300 419 q 306 439 320 444 q 334 449 351 449 q 368 449 382 444 q 396 439 402 419 l 466 204 l 555 458 q 563 482 597 482 q 616 482 640 474 q 664 466 682 452 q 699 437 699 418 q 699 414 698 409 q 697 404 695 399 l 541 14 q 535 -1 518 -7 q 501 -13 481 -13 q 459 -13 440 -6 q 422 1 417 14 l 351 188 l 285 14 q 281 1 262 -6 q 243 -13 220 -13 z"},"-":{"x_min":0,"x_max":416,"ha":416,"o":"m 78 177 q 57 177 44 194 q 31 212 31 240 q 31 267 44 286 q 57 304 78 304 l 338 304 q 356 304 371 286 q 386 267 386 240 q 386 212 371 194 q 356 177 338 177 z"},"E":{"x_min":0,"x_max":539,"ha":539,"o":"m 122 0 q 97 0 76 12 q 54 24 54 48 l 54 683 q 54 707 76 719 q 97 731 122 731 l 478 731 q 503 731 514 710 q 525 688 525 664 q 525 636 513 616 q 501 595 478 595 l 210 595 l 210 426 l 360 426 q 383 426 395 408 q 407 389 407 365 q 407 345 396 326 q 385 306 360 306 l 210 306 l 210 136 l 478 136 q 501 136 513 116 q 525 95 525 67 q 525 43 514 22 q 503 0 478 0 z"},"s":{"x_min":0,"x_max":429,"ha":429,"o":"m 211 -10 q 159 -10 116 3 q 72 16 46 37 q 21 58 21 82 q 21 94 28 110 q 34 126 46 138 q 57 150 72 150 q 88 150 104 138 q 120 127 144 116 q 167 105 207 105 q 247 105 258 116 q 269 128 269 138 q 269 155 252 164 q 235 174 208 180 q 182 187 152 196 q 122 204 96 219 q 69 234 52 260 q 35 286 35 328 q 35 365 52 400 q 70 436 111 459 q 152 482 223 482 q 267 482 306 473 q 344 464 368 448 q 393 431 393 410 q 393 400 386 382 q 380 365 368 351 q 355 337 337 337 q 324 337 308 344 q 292 352 272 360 q 252 367 225 367 q 205 367 192 362 q 180 357 174 350 q 168 343 168 335 q 168 321 185 314 q 202 306 229 300 q 256 293 286 284 q 316 276 343 260 q 370 243 387 216 q 404 188 404 144 q 404 74 354 32 q 305 -10 211 -10 z"},">":{"x_min":0,"x_max":427,"ha":427,"o":"m 104 51 q 82 51 59 72 q 36 93 36 124 q 36 152 54 163 l 230 277 l 54 391 q 36 402 36 430 q 36 461 59 482 q 82 503 104 503 q 117 503 123 498 l 377 333 q 394 322 401 306 q 408 290 408 277 q 408 264 401 248 q 394 232 377 221 l 123 56 q 117 51 104 51 z"},"l":{"x_min":0,"x_max":263,"ha":263,"o":"m 131 0 q 97 0 76 15 q 54 30 54 48 l 54 701 q 54 722 76 735 q 97 748 131 748 q 163 748 186 735 q 209 722 209 701 l 209 48 q 209 30 186 15 q 163 0 131 0 z"},"8":{"x_min":0,"x_max":545,"ha":545,"o":"m 273 -6 q 204 -6 148 14 q 93 35 60 80 q 27 126 27 200 l 27 212 q 27 289 62 335 q 96 381 151 400 q 107 415 80 453 q 52 491 52 553 q 52 616 80 655 q 109 694 159 712 q 209 731 273 731 q 338 731 388 712 q 437 694 466 655 q 494 616 494 553 q 494 491 466 453 q 439 415 395 400 q 451 381 484 335 q 518 289 518 212 l 518 200 q 518 126 486 80 q 453 35 398 14 q 342 -6 273 -6 z m 273 119 q 316 119 339 144 q 362 169 362 219 l 362 241 q 362 290 338 313 q 315 336 273 336 q 231 336 207 313 q 183 290 183 241 l 183 219 q 183 167 208 143 q 232 119 273 119 z m 273 461 q 307 461 326 478 q 344 494 344 533 q 344 571 326 588 q 307 606 273 606 q 239 606 220 588 q 202 571 202 533 q 202 494 220 478 q 239 461 273 461 z"},"\\":{"x_min":0,"x_max":382,"ha":382,"o":"m 307 -1 q 291 -1 278 8 q 266 17 261 31 l 21 689 q 18 697 18 704 q 18 724 35 740 q 52 755 76 755 q 90 755 102 748 q 115 741 121 725 l 361 67 q 363 63 363 60 q 363 57 363 53 q 363 33 346 16 q 330 -1 307 -1 z"},"e":{"x_min":0,"x_max":496,"ha":496,"o":"m 280 -10 q 206 -10 149 16 q 92 43 60 91 q 27 139 27 202 l 27 275 q 27 331 58 378 q 89 425 141 454 q 193 482 257 482 q 315 482 364 458 q 412 434 442 392 q 472 349 472 292 q 472 247 458 228 q 443 208 420 204 q 398 199 375 199 l 182 199 l 182 193 q 182 156 210 134 q 238 111 284 111 q 315 111 337 120 q 359 130 376 139 q 393 148 409 148 q 427 148 440 136 q 453 124 460 108 q 466 92 466 80 q 466 61 443 40 q 420 19 378 4 q 337 -10 280 -10 z m 182 286 l 306 286 q 317 286 322 291 q 327 296 327 310 q 327 330 316 344 q 306 357 290 364 q 273 370 254 370 q 236 370 220 364 q 203 357 192 344 q 182 330 182 310 z"},"b":{"x_min":0,"x_max":533,"ha":533,"o":"m 331 -10 q 283 -10 244 14 q 206 39 191 70 l 191 48 q 191 30 171 15 q 151 0 122 0 q 89 0 68 15 q 46 30 46 48 l 46 701 q 46 722 68 735 q 89 748 122 748 q 155 748 178 735 q 201 722 201 701 l 201 406 q 217 435 250 458 q 282 482 328 482 q 377 482 417 454 q 457 425 481 378 q 505 330 505 272 l 505 202 q 505 147 481 98 q 457 50 418 20 q 378 -10 331 -10 z m 278 125 q 298 125 314 136 q 331 147 340 165 q 350 183 350 202 l 350 272 q 350 291 340 308 q 331 325 314 336 q 298 347 277 347 q 259 347 242 338 q 224 329 212 312 q 201 296 201 272 l 201 189 q 201 181 212 166 q 222 150 240 138 q 257 125 278 125 z"},"%":{"x_min":0,"x_max":807,"ha":807,"o":"m 233 -46 q 208 -46 192 -29 q 177 -12 177 7 q 177 16 182 26 l 533 747 q 545 772 575 772 q 596 772 615 758 q 634 743 634 719 q 634 708 630 700 l 278 -21 q 273 -32 260 -39 q 247 -46 233 -46 z m 174 319 q 110 319 67 350 q 24 380 24 454 l 24 596 q 24 670 67 700 q 110 731 174 731 q 216 731 250 718 q 284 705 304 676 q 324 646 324 596 l 324 454 q 324 405 304 375 q 284 345 250 332 q 216 319 174 319 z m 174 406 q 197 406 210 418 q 224 429 224 454 l 224 596 q 224 621 210 632 q 197 644 174 644 q 151 644 138 632 q 125 621 125 596 l 125 454 q 125 429 138 418 q 151 406 174 406 z m 633 -3 q 569 -3 526 28 q 483 58 483 132 l 483 274 q 483 348 526 378 q 569 409 633 409 q 675 409 709 396 q 743 383 763 354 q 783 324 783 274 l 783 132 q 783 83 763 53 q 743 23 709 10 q 675 -3 633 -3 z m 633 84 q 656 84 670 96 q 683 107 683 132 l 683 274 q 683 299 670 310 q 656 322 633 322 q 610 322 597 310 q 584 299 584 274 l 584 132 q 584 107 597 96 q 610 84 633 84 z"},"m":{"x_min":0,"x_max":813,"ha":813,"o":"m 122 0 q 88 0 66 15 q 45 30 45 48 l 45 429 q 45 450 66 463 q 88 476 122 476 q 150 476 170 463 q 190 450 190 429 l 190 406 q 207 435 240 458 q 273 482 322 482 q 363 482 394 454 q 425 426 440 382 q 466 433 506 458 q 547 482 590 482 q 637 482 678 458 q 720 433 746 386 q 772 339 772 272 l 772 48 q 772 30 749 15 q 726 0 694 0 q 663 0 640 15 q 617 30 617 48 l 617 272 q 617 297 608 314 q 598 331 582 340 q 567 348 550 348 q 534 348 520 340 q 505 331 496 314 q 486 298 486 272 l 486 47 q 486 22 462 11 q 437 0 408 0 q 381 0 356 11 q 331 22 331 47 l 331 271 q 331 296 321 313 q 311 330 296 338 q 280 347 263 347 q 247 347 232 339 q 218 331 209 314 q 200 298 200 272 l 200 48 q 200 30 177 15 q 154 0 122 0 z"},"#":{"x_min":0,"x_max":717,"ha":717,"o":"m 187 28 q 162 28 136 42 q 111 57 111 85 l 133 207 l 63 207 q 44 207 32 222 q 21 238 21 263 q 21 288 33 305 q 45 322 64 322 l 156 322 l 177 430 l 106 430 q 87 430 76 446 q 64 461 64 486 q 64 511 76 528 q 88 545 107 545 l 200 545 l 226 681 q 229 696 249 704 q 269 713 291 713 q 317 713 339 700 q 361 688 361 656 l 340 545 l 443 545 l 469 681 q 472 696 492 704 q 512 713 534 713 q 560 713 582 700 q 604 688 605 656 l 583 545 l 653 545 q 670 545 683 528 q 696 512 696 488 q 696 463 682 446 q 669 430 652 430 l 562 430 l 540 322 l 610 322 q 627 322 640 306 q 654 289 654 265 q 654 239 640 223 q 626 207 609 207 l 518 207 l 490 62 q 487 48 468 38 q 449 28 430 28 q 414 28 396 34 q 378 41 366 54 q 353 66 353 85 l 376 207 l 275 207 l 247 62 q 244 48 224 38 q 205 28 187 28 z m 297 322 l 399 322 l 420 430 l 318 430 z"},",":{"x_min":0,"x_max":199,"ha":199,"o":"m 84 -106 q 68 -106 51 -96 q 34 -86 34 -67 q 34 -59 38 -51 l 63 3 q 45 14 34 32 q 23 49 23 71 q 23 103 46 126 q 68 148 99 148 q 131 148 154 126 q 176 103 176 72 q 176 68 174 61 q 173 54 167 39 q 161 24 148 -6 q 136 -37 114 -88 q 110 -98 101 -102 q 92 -106 84 -106 z"},"n":{"x_min":0,"x_max":534,"ha":534,"o":"m 122 0 q 88 0 66 15 q 45 30 45 48 l 45 429 q 45 450 66 463 q 88 476 122 476 q 150 476 170 463 q 190 450 190 429 l 190 406 q 204 435 239 458 q 274 482 324 482 q 370 482 408 454 q 447 425 470 378 q 494 330 494 272 l 494 48 q 494 24 470 12 q 445 0 416 0 q 389 0 364 12 q 339 24 339 48 l 339 272 q 339 291 330 308 q 320 325 304 336 q 287 347 267 347 q 251 347 236 338 q 220 329 210 312 q 200 296 200 272 l 200 48 q 200 30 177 15 q 154 0 122 0 z"},"h":{"x_min":0,"x_max":535,"ha":535,"o":"m 123 0 q 89 0 68 15 q 46 30 46 48 l 46 701 q 46 722 68 735 q 89 748 123 748 q 155 748 178 735 q 201 722 201 701 l 201 406 q 215 435 247 458 q 279 482 325 482 q 371 482 410 454 q 448 425 472 378 q 495 330 495 272 l 495 48 q 495 24 470 12 q 446 0 417 0 q 390 0 365 12 q 340 24 340 48 l 340 272 q 340 291 330 308 q 320 325 304 336 q 288 347 268 347 q 252 347 236 338 q 221 329 211 312 q 201 296 201 272 l 201 48 q 201 30 178 15 q 155 0 123 0 z"},"z":{"x_min":0,"x_max":448,"ha":448,"o":"m 69 0 q 41 0 30 18 q 18 35 18 54 q 18 73 26 89 q 35 105 45 118 l 222 351 l 69 351 q 51 351 38 370 q 25 388 25 414 q 25 439 37 458 q 49 476 69 476 l 368 476 q 387 476 402 464 q 416 451 416 425 q 416 391 391 358 l 213 125 l 390 125 q 408 125 421 106 q 434 88 434 62 q 434 37 422 18 q 410 0 390 0 z"},"B":{"x_min":0,"x_max":572,"ha":572,"o":"m 122 0 q 91 0 72 14 q 54 28 54 47 l 54 683 q 54 707 76 719 q 97 731 122 731 l 327 731 q 377 731 423 716 q 469 701 498 662 q 527 624 527 553 q 527 492 504 452 q 482 413 442 396 q 473 385 496 366 q 519 348 532 317 q 545 286 545 236 l 545 215 q 545 136 518 89 q 492 42 446 21 q 401 0 344 0 z m 209 136 l 309 136 q 347 136 368 158 q 389 180 389 228 l 389 244 q 389 295 368 316 q 347 336 309 336 l 209 336 z m 209 456 l 314 456 q 343 456 357 478 q 371 500 371 525 q 371 543 364 559 q 358 575 346 585 q 333 595 314 595 l 209 595 z"},"K":{"x_min":0,"x_max":566,"ha":566,"o":"m 132 0 q 103 0 78 12 q 54 24 54 48 l 54 684 q 54 709 78 720 q 103 731 132 731 q 161 731 186 720 q 210 709 210 684 l 210 444 l 397 709 q 412 731 438 731 q 458 731 480 719 q 501 707 516 689 q 530 671 530 651 q 530 645 528 637 q 526 629 520 621 l 356 415 l 563 98 q 571 85 571 72 q 571 53 557 35 q 543 17 522 6 q 500 -6 477 -6 q 461 -6 447 0 q 433 7 423 23 l 252 283 l 210 229 l 210 48 q 210 24 186 12 q 161 0 132 0 z"},"R":{"x_min":0,"x_max":584,"ha":584,"o":"m 463 -6 q 448 -6 434 0 q 421 7 413 23 l 276 289 l 210 289 l 210 48 q 210 24 186 12 q 161 0 132 0 q 103 0 78 12 q 54 24 54 48 l 54 684 q 54 703 67 717 q 80 731 102 731 l 309 731 q 378 731 434 712 q 489 692 522 646 q 555 599 555 517 q 555 461 540 420 q 524 380 496 354 q 469 328 434 314 l 556 93 q 559 89 560 84 q 561 79 561 75 q 561 56 546 37 q 531 18 508 6 q 486 -6 463 -6 z m 210 409 l 309 409 q 351 409 375 430 q 399 450 399 502 q 399 555 375 575 q 351 595 309 595 l 210 595 z"},"T":{"x_min":0,"x_max":542,"ha":542,"o":"m 271 0 q 242 0 218 12 q 193 24 193 48 l 193 591 l 55 591 q 33 591 20 612 q 8 634 8 662 q 8 687 19 709 q 30 731 55 731 l 487 731 q 512 731 523 709 q 534 687 534 662 q 534 634 522 612 q 510 591 487 591 l 349 591 l 349 48 q 349 24 324 12 q 300 0 271 0 z"},"P":{"x_min":0,"x_max":569,"ha":569,"o":"m 132 0 q 103 0 78 12 q 54 24 54 48 l 54 684 q 54 703 70 717 q 86 731 112 731 l 319 731 q 385 731 438 708 q 492 686 524 636 q 555 585 555 501 l 555 496 q 555 412 522 361 q 490 310 434 287 q 378 264 309 264 l 210 264 l 210 48 q 210 24 186 12 q 161 0 132 0 z m 210 384 l 309 384 q 351 384 375 408 q 399 433 399 484 l 399 495 q 399 546 375 570 q 351 595 309 595 l 210 595 z"},"|":{"x_min":0,"x_max":255,"ha":255,"o":"m 127 -21 q 93 -21 72 -6 q 50 9 50 27 l 50 721 q 50 742 72 755 q 93 768 127 768 q 159 768 182 755 q 205 742 205 721 l 205 27 q 205 9 182 -6 q 159 -21 127 -21 z"},"t":{"x_min":0,"x_max":364,"ha":364,"o":"m 239 0 q 144 0 94 40 q 43 81 43 169 l 43 636 q 43 657 68 670 q 93 683 120 683 q 149 683 174 670 q 198 657 198 636 l 198 476 l 311 476 q 330 476 340 458 q 349 441 349 421 q 349 400 340 383 q 330 366 311 366 l 198 366 l 198 169 q 198 147 207 138 q 216 130 239 130 l 282 130 q 316 130 332 110 q 348 89 348 65 q 348 40 332 20 q 316 0 282 0 z"},"M":{"x_min":0,"x_max":712,"ha":712,"o":"m 132 0 q 103 0 78 12 q 54 24 54 48 l 54 653 q 54 696 78 714 q 103 731 132 731 q 160 731 180 726 q 199 722 216 706 q 233 689 253 653 l 356 473 l 459 653 q 480 689 496 706 q 513 722 532 726 q 552 731 580 731 q 610 731 634 714 q 658 696 658 653 l 658 48 q 658 24 634 12 q 609 0 580 0 q 551 0 526 12 q 502 24 502 48 l 502 423 l 406 259 q 396 243 382 236 q 368 230 354 230 q 341 230 328 236 q 314 242 305 259 l 210 433 l 210 48 q 210 24 186 12 q 161 0 132 0 z"},"g":{"x_min":0,"x_max":478,"ha":478,"o":"m 240 -217 q 181 -217 128 -200 q 76 -183 44 -150 q 12 -118 12 -72 q 12 -36 31 -10 q 50 16 79 32 q 63 42 53 57 q 43 72 43 94 q 43 122 58 140 q 72 159 94 175 q 63 198 46 230 q 29 263 29 302 l 29 317 q 29 366 54 403 q 80 440 126 461 q 173 482 234 482 q 266 482 295 476 q 324 469 347 458 q 365 502 378 515 q 391 528 404 528 q 432 528 448 512 q 463 496 463 482 q 463 474 459 466 q 455 459 447 452 q 438 444 426 436 q 415 427 404 416 q 423 396 432 371 q 442 346 442 317 l 442 302 q 442 254 416 216 q 389 179 342 157 q 295 135 234 135 q 201 135 174 141 q 172 137 171 134 q 170 131 170 128 q 170 114 192 108 q 213 102 246 98 q 280 94 318 87 q 356 80 390 65 q 423 50 444 22 q 466 -7 466 -54 q 466 -113 432 -149 q 399 -185 348 -201 q 296 -217 240 -217 z m 237 -119 q 267 -119 292 -102 q 316 -86 316 -58 q 316 -41 306 -30 q 297 -19 280 -12 q 264 -6 242 -2 q 221 1 198 4 q 178 -6 168 -22 q 158 -38 158 -56 q 158 -87 182 -103 q 207 -119 237 -119 z m 236 225 q 262 225 277 246 q 292 268 292 302 l 292 317 q 292 348 278 370 q 263 392 235 392 q 208 392 194 370 q 179 348 179 317 l 179 303 q 179 270 194 248 q 208 225 236 225 z"},"j":{"x_min":0,"x_max":245,"ha":245,"o":"m 41 -217 q -8 -217 -24 -197 q -40 -177 -40 -154 q -40 -123 -23 -105 q -6 -87 18 -87 q 30 -87 36 -80 q 42 -72 44 -58 q 45 -45 45 -28 l 45 429 q 45 450 66 463 q 88 476 121 476 q 154 476 177 463 q 200 450 200 429 l 200 -28 q 200 -83 182 -126 q 163 -169 128 -193 q 92 -217 41 -217 z m 122 568 q 88 568 64 590 q 40 612 40 640 q 40 669 64 690 q 88 711 122 711 q 156 711 180 690 q 203 669 203 640 q 203 612 180 590 q 156 568 122 568 z"},"i":{"x_min":0,"x_max":244,"ha":244,"o":"m 122 0 q 88 0 66 15 q 45 30 45 48 l 45 429 q 45 450 66 463 q 88 476 122 476 q 154 476 177 463 q 200 450 200 429 l 200 48 q 200 30 177 15 q 154 0 122 0 z m 122 568 q 88 568 64 590 q 40 612 40 640 q 40 669 64 690 q 88 711 122 711 q 156 711 180 690 q 203 669 203 640 q 203 612 180 590 q 156 568 122 568 z"},"y":{"x_min":0,"x_max":496,"ha":496,"o":"m 72 -217 q 42 -217 22 -206 q 1 -195 1 -151 q 1 -125 10 -106 q 18 -87 39 -87 q 53 -87 76 -84 q 99 -82 124 -70 q 148 -59 164 -32 q 181 -6 181 41 l 6 389 q 1 399 1 409 q 1 429 19 446 q 37 463 62 473 q 86 483 106 483 q 120 483 132 478 q 144 472 149 458 l 262 187 l 345 458 q 350 472 362 478 q 373 483 385 483 q 403 483 428 472 q 454 462 473 445 q 492 428 492 406 q 492 396 488 389 l 346 35 q 327 -12 310 -57 q 293 -102 266 -138 q 240 -174 194 -196 q 148 -217 72 -217 z"},"@":{"x_min":0,"x_max":753,"ha":753,"o":"m 340 -143 q 281 -143 226 -122 q 171 -100 128 -56 q 85 -13 60 52 q 35 118 35 206 q 35 310 74 394 q 112 477 190 526 q 269 575 388 575 q 496 575 572 534 q 649 493 690 418 q 730 342 730 240 q 730 175 712 122 q 695 68 660 36 q 625 4 571 4 q 526 4 498 26 q 469 47 463 80 q 439 48 408 28 q 378 7 337 7 q 308 7 279 20 q 250 32 231 58 q 212 85 212 125 q 212 173 239 200 q 266 228 312 240 q 358 252 415 252 l 442 252 l 442 265 q 442 297 424 313 q 406 329 368 329 q 339 329 320 322 q 301 315 290 308 q 278 301 269 301 q 259 301 251 312 q 243 322 238 336 q 234 349 234 358 q 234 379 256 396 q 279 412 313 422 q 347 432 383 432 q 426 432 464 417 q 503 402 528 372 q 552 342 552 296 l 552 125 q 557 97 563 88 q 569 78 580 78 q 599 78 610 93 q 621 108 626 130 q 631 152 632 176 q 634 199 634 215 q 634 349 576 420 q 517 491 389 491 q 314 491 264 468 q 214 446 186 406 q 157 366 144 315 q 132 264 132 207 q 132 154 143 106 q 154 58 180 21 q 205 -16 249 -38 q 293 -59 359 -59 q 398 -59 422 -53 q 446 -47 462 -41 q 477 -35 488 -35 q 507 -35 516 -52 q 525 -68 525 -79 q 525 -97 505 -110 q 485 -122 454 -130 q 424 -137 393 -140 q 362 -143 340 -143 z m 368 86 q 387 86 405 98 q 423 110 436 128 q 448 147 448 168 l 448 190 l 430 190 q 399 190 378 183 q 356 176 345 162 q 334 148 334 127 q 334 108 343 97 q 352 86 368 86 z"},".":{"x_min":0,"x_max":199,"ha":199,"o":"m 100 -6 q 67 -6 45 17 q 23 40 23 71 q 23 103 45 126 q 67 148 100 148 q 131 148 154 126 q 176 103 176 71 q 176 40 154 17 q 131 -6 100 -6 z"},"p":{"x_min":0,"x_max":533,"ha":533,"o":"m 122 -217 q 89 -217 68 -202 q 46 -187 46 -169 l 46 429 q 46 450 68 463 q 89 476 120 476 q 151 476 171 463 q 191 450 191 429 l 191 406 q 208 435 244 458 q 279 482 326 482 q 377 482 418 454 q 458 425 482 378 q 505 330 505 272 l 505 202 q 505 147 481 98 q 457 50 418 20 q 378 -10 331 -10 q 287 -10 251 14 q 215 39 201 70 l 201 -169 q 201 -187 178 -202 q 155 -217 122 -217 z m 276 125 q 296 125 312 136 q 329 147 340 165 q 350 183 350 202 l 350 272 q 350 291 340 308 q 330 325 312 336 q 295 347 274 347 q 256 347 240 338 q 223 329 212 312 q 201 296 201 272 l 201 189 q 201 181 210 166 q 220 150 237 138 q 254 125 276 125 z"},"X":{"x_min":0,"x_max":590,"ha":590,"o":"m 112 -6 q 91 -6 66 4 q 42 15 25 32 q 8 50 8 71 q 8 84 17 99 l 190 366 l 24 632 q 14 648 14 663 q 14 684 30 701 q 46 718 70 728 q 93 737 115 737 q 132 737 144 731 q 155 725 162 711 l 295 479 l 428 711 q 436 725 448 731 q 459 737 475 737 q 497 737 520 728 q 544 718 560 701 q 576 684 576 663 q 576 648 566 632 l 400 366 l 573 99 q 582 84 582 71 q 582 50 565 32 q 548 15 524 4 q 500 -6 478 -6 q 466 -6 456 -2 q 446 2 441 10 l 295 258 l 149 10 q 144 2 134 -2 q 124 -6 112 -6 z"},"*":{"x_min":0,"x_max":491,"ha":491,"o":"m 145 304 q 133 304 118 310 q 104 316 93 328 q 82 340 82 356 q 82 374 94 388 l 160 482 l 56 512 q 39 516 30 530 q 22 544 22 563 q 22 583 38 600 q 53 618 77 618 q 79 618 83 618 q 87 617 92 615 l 197 581 l 192 683 q 193 708 209 720 q 225 731 246 731 q 267 731 282 720 q 298 708 299 683 l 295 579 l 401 615 q 409 618 416 618 q 439 618 454 598 q 468 578 468 556 q 468 541 460 528 q 452 516 434 512 l 332 488 l 402 387 q 410 377 410 358 q 410 334 390 319 q 371 304 349 304 q 341 304 330 307 q 319 310 311 323 l 246 423 l 180 322 q 173 311 164 308 q 156 304 145 304 z"},"Y":{"x_min":0,"x_max":590,"ha":590,"o":"m 295 0 q 266 0 242 12 q 217 24 217 48 l 217 299 q 217 307 213 313 l 6 656 q 5 659 4 662 q 4 665 4 667 q 4 686 22 700 q 39 714 64 722 q 89 731 110 731 q 129 731 138 724 q 147 716 155 702 l 295 445 l 434 702 q 442 716 451 724 q 460 731 479 731 q 501 731 526 722 q 550 714 568 700 q 585 686 585 667 q 585 665 585 662 q 585 659 583 656 l 377 313 q 373 307 373 299 l 373 48 q 373 24 348 12 q 324 0 295 0 z"},"c":{"x_min":0,"x_max":442,"ha":442,"o":"m 255 -10 q 176 -10 126 18 q 75 46 52 94 q 28 142 28 202 l 28 270 q 28 330 52 378 q 75 426 125 454 q 175 482 253 482 q 302 482 340 470 q 378 459 400 440 q 422 421 422 399 q 422 385 414 367 q 407 349 394 336 q 380 323 362 323 q 350 323 338 329 q 327 335 310 341 q 293 347 266 347 q 221 347 202 327 q 183 307 183 270 l 183 202 q 183 165 202 145 q 221 125 267 125 q 294 125 310 132 q 326 139 338 146 q 349 152 362 152 q 383 152 398 140 q 413 128 420 110 q 428 93 428 78 q 428 56 405 36 q 382 15 343 2 q 304 -10 255 -10 z"},"!":{"x_min":0,"x_max":229,"ha":229,"o":"m 115 217 q 91 217 74 228 q 56 238 56 261 q 56 321 52 394 q 49 466 46 538 q 42 611 42 670 q 42 699 63 715 q 84 731 115 731 q 144 731 166 715 q 187 699 187 670 q 187 611 184 538 q 180 466 176 394 q 173 321 173 261 q 173 238 153 228 q 133 217 115 217 z m 116 -6 q 83 -6 61 17 q 39 40 39 71 q 39 103 61 126 q 83 148 116 148 q 147 148 170 126 q 192 103 192 71 q 192 40 170 17 q 147 -6 116 -6 z"},"/":{"x_min":0,"x_max":491,"ha":491,"o":"m 73 -46 q 48 -46 32 -29 q 17 -12 17 7 q 17 16 22 26 l 373 747 q 385 772 415 772 q 436 772 455 758 q 474 743 474 719 q 474 708 470 700 l 118 -21 q 113 -32 100 -39 q 87 -46 73 -46 z"},"[":{"x_min":0,"x_max":355,"ha":355,"o":"m 118 -21 q 93 -21 72 -9 q 50 3 50 27 l 50 720 q 50 744 72 756 q 93 768 118 768 l 294 768 q 319 768 330 746 q 341 725 341 701 q 341 673 329 652 q 317 632 294 632 l 206 632 l 206 115 l 294 115 q 317 115 329 94 q 341 74 341 46 q 341 22 330 0 q 319 -21 294 -21 z"},"6":{"x_min":0,"x_max":562,"ha":562,"o":"m 285 -6 q 216 -6 160 17 q 105 40 72 92 q 39 144 39 230 l 39 495 q 39 581 73 633 q 107 685 164 708 q 222 731 294 731 q 357 731 402 714 q 447 696 476 668 q 504 640 517 607 q 530 574 530 543 q 530 507 512 494 q 495 480 457 480 q 425 480 400 492 q 376 503 376 537 q 376 556 364 569 q 352 582 332 588 q 313 595 289 595 q 245 595 220 571 q 195 547 195 495 l 195 405 q 219 431 252 440 q 284 449 320 449 q 377 449 424 430 q 472 411 501 365 q 530 319 530 239 l 530 230 q 530 144 498 92 q 465 40 410 17 q 354 -6 285 -6 z m 285 120 q 327 120 350 144 q 374 167 374 219 l 374 228 q 374 283 350 306 q 327 329 284 329 q 244 329 220 308 q 195 287 195 237 l 195 219 q 195 167 219 144 q 243 120 285 120 z"},"r":{"x_min":0,"x_max":394,"ha":394,"o":"m 121 0 q 88 0 66 15 q 45 30 45 48 l 45 429 q 45 450 66 463 q 88 476 121 476 q 150 476 170 463 q 190 450 190 429 l 190 392 q 200 414 218 434 q 237 455 260 468 q 284 482 309 482 l 338 482 q 360 482 376 462 q 393 442 393 415 q 393 387 376 367 q 360 347 338 347 l 309 347 q 282 347 257 328 q 232 310 216 277 q 200 244 200 198 l 200 48 q 200 30 177 15 q 154 0 121 0 z"},"2":{"x_min":0,"x_max":517,"ha":517,"o":"m 91 0 q 70 0 46 13 q 23 26 23 48 l 23 145 q 23 184 46 218 q 68 253 104 284 q 140 314 180 343 q 221 372 256 400 q 292 429 315 458 q 338 487 338 519 q 338 535 330 552 q 323 568 306 579 q 290 590 262 590 q 232 590 210 573 q 187 556 187 515 q 187 493 165 476 q 143 458 105 458 q 75 458 55 475 q 35 492 35 539 q 35 600 68 643 q 100 686 152 708 q 204 731 261 731 q 319 731 372 707 q 426 683 460 637 q 494 591 494 524 q 494 470 472 427 q 449 384 414 350 q 379 315 340 287 q 300 259 265 236 q 230 212 208 190 q 185 168 185 145 l 185 136 l 447 136 q 466 136 480 116 q 494 96 494 69 q 494 42 480 21 q 466 0 447 0 z"},"{":{"x_min":0,"x_max":380,"ha":380,"o":"m 279 -20 q 227 -20 177 1 q 127 22 94 59 q 62 96 62 144 q 62 155 64 172 q 65 188 68 208 q 70 228 72 246 q 74 265 76 280 q 77 294 77 301 q 77 317 68 323 q 59 329 47 334 q 35 338 26 349 q 17 360 17 387 q 17 413 26 424 q 35 435 47 439 q 59 443 68 448 q 77 454 77 469 q 77 477 74 492 q 72 508 70 526 q 67 545 64 563 q 62 581 62 593 q 62 627 81 658 q 100 690 132 714 q 164 739 202 754 q 241 768 281 768 q 333 768 350 746 q 368 724 368 700 q 368 678 356 658 q 345 637 321 637 q 306 637 282 632 q 257 627 238 613 q 218 599 218 572 q 218 563 220 546 q 223 530 226 510 q 228 491 230 474 q 233 458 233 449 q 233 427 220 407 q 206 387 197 384 q 208 381 220 362 q 233 343 233 320 q 233 311 230 288 q 228 266 226 240 q 223 214 220 193 q 218 172 218 164 q 218 148 229 138 q 240 127 256 122 q 273 116 290 114 q 308 111 321 111 q 340 111 350 100 q 360 89 364 74 q 368 59 368 46 q 368 12 346 -4 q 323 -20 279 -20 z"},"9":{"x_min":0,"x_max":563,"ha":563,"o":"m 269 -6 q 206 -6 161 12 q 116 29 88 57 q 59 85 46 118 q 33 151 33 182 q 33 218 51 232 q 69 245 106 245 q 138 245 162 234 q 187 223 187 188 q 187 169 199 156 q 211 143 230 136 q 250 130 274 130 q 318 130 343 154 q 368 178 368 230 l 368 320 q 344 294 312 285 q 279 276 243 276 q 186 276 138 295 q 90 314 62 360 q 33 406 33 486 l 33 495 q 33 581 66 633 q 98 685 154 708 q 209 731 278 731 q 347 731 403 708 q 459 685 492 633 q 524 581 524 495 l 524 230 q 524 144 490 92 q 456 40 398 17 q 341 -6 269 -6 z m 279 396 q 320 396 344 418 q 368 439 368 488 l 368 506 q 368 558 344 582 q 320 605 278 605 q 236 605 212 582 q 189 558 189 506 l 189 497 q 189 442 212 419 q 236 396 279 396 z"}," ":{"x_min":0,"x_max":200,"ha":200,"o":""},"I":{"x_min":0,"x_max":264,"ha":264,"o":"m 132 0 q 103 0 78 12 q 54 24 54 48 l 54 684 q 54 709 78 720 q 103 731 132 731 q 161 731 186 720 q 210 709 210 684 l 210 48 q 210 24 186 12 q 161 0 132 0 z"},"H":{"x_min":0,"x_max":619,"ha":619,"o":"m 132 0 q 103 0 78 12 q 54 24 54 48 l 54 684 q 54 709 78 720 q 103 731 132 731 q 161 731 186 720 q 210 709 210 684 l 210 439 l 409 439 l 409 684 q 409 709 434 720 q 458 731 487 731 q 516 731 540 720 q 565 709 565 684 l 565 48 q 565 24 540 12 q 516 0 487 0 q 458 0 434 12 q 409 24 409 48 l 409 319 l 210 319 l 210 48 q 210 24 186 12 q 161 0 132 0 z"},"4":{"x_min":0,"x_max":525,"ha":525,"o":"m 359 0 q 330 0 306 12 q 281 24 281 48 l 281 154 l 47 154 q 25 154 10 168 q -5 182 -5 208 q -5 214 -3 222 q -1 230 3 238 l 234 691 q 245 713 262 722 q 280 731 299 731 q 313 731 331 724 q 349 717 363 704 q 377 690 377 672 q 377 665 372 653 l 195 298 l 281 298 l 281 368 q 281 393 306 404 q 330 415 359 415 q 388 415 412 404 q 437 393 437 368 l 437 298 l 480 298 q 504 298 516 276 q 528 253 528 226 q 528 199 513 176 q 498 154 480 154 l 437 154 l 437 48 q 437 24 412 12 q 388 0 359 0 z"},"~":{"x_min":0,"x_max":411,"ha":411,"o":"m 298 192 q 263 192 239 199 q 215 206 196 212 q 176 219 152 219 q 131 219 116 214 q 101 208 90 203 q 78 198 66 198 q 51 198 42 208 q 34 218 31 230 q 28 242 28 247 q 28 274 38 288 q 49 303 64 310 q 78 317 92 318 q 106 320 113 320 q 144 320 166 314 q 188 307 210 300 q 232 293 259 293 q 280 293 295 298 q 310 304 322 309 q 334 314 345 314 q 361 314 369 304 q 377 294 380 282 q 383 270 383 265 q 383 238 372 224 q 362 209 348 202 q 333 195 319 194 q 305 192 298 192 z"},"D":{"x_min":0,"x_max":590,"ha":590,"o":"m 122 0 q 91 0 72 14 q 54 28 54 47 l 54 684 q 54 703 72 717 q 91 731 122 731 l 299 731 q 368 731 424 708 q 480 685 512 633 q 545 581 545 495 l 545 236 q 545 150 512 98 q 480 46 424 23 q 368 0 299 0 z m 210 136 l 299 136 q 341 136 365 160 q 389 185 389 236 l 389 495 q 389 546 365 570 q 341 595 299 595 l 210 595 z"},"^":{"x_min":0,"x_max":292,"ha":292,"o":"m 31 569 q 18 569 9 584 q 0 598 0 615 q 0 628 6 640 q 12 652 25 659 l 129 715 q 139 720 146 720 q 153 720 163 715 l 267 659 q 281 652 286 640 q 292 628 292 615 q 292 598 284 584 q 275 569 261 569 q 259 569 256 570 q 253 571 250 572 l 146 628 l 42 572 q 39 571 36 570 q 33 569 31 569 z"},"0":{"x_min":0,"x_max":569,"ha":569,"o":"m 284 -6 q 215 -6 160 17 q 104 40 72 92 q 39 144 39 230 l 39 495 q 39 581 72 633 q 104 685 160 708 q 215 731 284 731 q 353 731 409 708 q 465 685 498 633 q 530 581 530 495 l 530 230 q 530 144 498 92 q 465 40 409 17 q 353 -6 284 -6 z m 284 130 q 326 130 350 154 q 374 178 374 230 l 374 495 q 374 547 350 571 q 326 595 284 595 q 242 595 218 571 q 195 547 195 495 l 195 230 q 195 178 218 154 q 242 130 284 130 z m 285 311 q 261 311 248 326 q 234 340 234 363 q 234 385 248 398 q 261 412 285 412 q 308 412 322 398 q 335 385 335 363 q 335 340 322 326 q 308 311 285 311 z"},"F":{"x_min":0,"x_max":515,"ha":515,"o":"m 132 0 q 103 0 78 12 q 54 24 54 48 l 54 683 q 54 707 76 719 q 97 731 122 731 l 469 731 q 494 731 505 710 q 516 688 516 664 q 516 636 504 616 q 492 595 469 595 l 210 595 l 210 426 l 361 426 q 384 426 396 408 q 408 389 408 365 q 408 345 397 326 q 386 306 361 306 l 210 306 l 210 48 q 210 24 186 12 q 161 0 132 0 z"},"`":{"x_min":0,"x_max":221,"ha":221,"o":""},"k":{"x_min":0,"x_max":509,"ha":509,"o":"m 122 0 q 89 0 68 15 q 46 30 46 48 l 46 701 q 46 722 68 735 q 89 748 122 748 q 155 748 178 735 q 201 722 201 701 l 201 309 l 367 470 q 379 482 397 482 q 414 482 432 470 q 449 459 460 442 q 472 425 472 408 q 472 401 469 394 q 466 387 460 381 l 354 283 l 491 91 q 499 78 499 67 q 499 49 484 31 q 470 13 450 2 q 429 -10 410 -10 q 386 -10 373 9 l 252 188 l 201 141 l 201 48 q 201 30 178 15 q 155 0 122 0 z"},"u":{"x_min":0,"x_max":535,"ha":535,"o":"m 268 -10 q 206 -10 154 20 q 102 49 71 97 q 40 145 40 200 l 40 428 q 40 446 63 461 q 86 476 118 476 q 149 476 172 461 q 195 446 195 428 l 195 200 q 195 181 205 164 q 215 147 232 136 q 248 125 268 125 q 288 125 304 136 q 321 147 330 164 q 340 181 340 200 l 340 429 q 340 448 364 462 q 387 476 418 476 q 452 476 474 462 q 495 448 495 429 l 495 200 q 495 144 464 96 q 433 48 382 19 q 330 -10 268 -10 z"},"]":{"x_min":0,"x_max":355,"ha":355,"o":"m 61 -21 q 36 -21 25 0 q 14 22 14 46 q 14 74 26 94 q 39 115 61 115 l 149 115 l 149 632 l 61 632 q 39 632 26 652 q 14 673 14 701 q 14 725 25 746 q 36 768 61 768 l 237 768 q 263 768 284 756 q 305 744 305 720 l 305 27 q 305 3 284 -9 q 263 -21 237 -21 z"},"U":{"x_min":0,"x_max":606,"ha":606,"o":"m 303 -6 q 232 -6 175 17 q 118 40 84 92 q 51 144 51 230 l 51 684 q 51 709 75 720 q 99 731 129 731 q 158 731 182 720 q 207 709 207 684 l 207 230 q 207 179 232 154 q 258 130 303 130 q 348 130 374 154 q 399 179 399 230 l 399 684 q 399 709 423 720 q 447 731 477 731 q 506 731 530 720 q 555 709 555 684 l 555 230 q 555 144 522 92 q 488 40 431 17 q 374 -6 303 -6 z"},"o":{"x_min":0,"x_max":509,"ha":509,"o":"m 254 -10 q 193 -10 142 20 q 90 49 58 98 q 27 146 27 202 l 27 272 q 27 328 58 376 q 88 424 140 453 q 192 482 254 482 q 315 482 367 454 q 419 425 450 378 q 482 330 482 272 l 482 202 q 482 147 450 98 q 419 50 367 20 q 315 -10 254 -10 z m 254 125 q 274 125 290 136 q 307 147 317 164 q 327 182 327 202 l 327 272 q 327 291 317 308 q 307 325 290 336 q 274 347 254 347 q 234 347 218 336 q 201 325 192 308 q 182 291 182 272 l 182 202 q 182 182 192 164 q 201 147 218 136 q 234 125 254 125 z"},"N":{"x_min":0,"x_max":619,"ha":619,"o":"m 132 0 q 103 0 78 12 q 54 24 54 48 l 54 683 q 54 708 78 720 q 103 731 132 731 q 160 731 178 726 q 197 722 212 706 q 228 690 247 653 l 409 344 l 409 684 q 409 709 434 720 q 458 731 487 731 q 516 731 540 720 q 565 709 565 684 l 565 48 q 565 24 540 12 q 516 0 487 0 q 460 0 437 8 q 414 16 400 42 l 210 388 l 210 48 q 210 24 186 12 q 161 0 132 0 z"},"+":{"x_min":0,"x_max":455,"ha":455,"o":"m 228 33 q 201 33 182 46 q 164 59 164 80 l 164 177 l 67 177 q 46 177 33 194 q 20 212 20 240 q 20 267 33 286 q 46 304 67 304 l 164 304 l 164 400 q 164 418 182 433 q 201 448 228 448 q 257 448 274 433 q 291 418 291 400 l 291 304 l 387 304 q 405 304 420 286 q 435 267 435 240 q 435 212 420 194 q 405 177 387 177 l 291 177 l 291 80 q 291 59 274 46 q 257 33 228 33 z"},"G":{"x_min":0,"x_max":573,"ha":573,"o":"m 291 -6 q 222 -6 166 17 q 111 40 78 92 q 46 144 46 230 l 46 495 q 46 581 78 633 q 111 685 166 708 q 221 731 286 731 q 358 731 414 708 q 471 684 504 640 q 537 596 537 532 q 537 487 518 472 q 499 458 459 458 q 428 458 405 468 q 382 478 381 505 q 381 523 376 544 q 372 565 354 580 q 335 595 292 595 q 249 595 226 570 q 202 546 202 495 l 202 230 q 202 179 226 154 q 249 130 291 130 q 333 130 357 154 q 381 179 381 230 l 381 264 l 322 264 q 300 264 288 282 q 275 301 275 324 q 275 346 288 365 q 300 384 322 384 l 490 384 q 513 384 525 370 q 537 355 537 335 l 537 230 q 537 144 504 92 q 472 40 416 17 q 360 -6 291 -6 z"},"q":{"x_min":0,"x_max":533,"ha":533,"o":"m 411 -217 q 378 -217 355 -202 q 332 -187 332 -169 l 332 70 q 318 39 282 14 q 246 -10 202 -10 q 156 -10 116 20 q 76 50 52 98 q 28 147 28 202 l 28 272 q 28 330 52 378 q 75 425 116 454 q 157 482 207 482 q 254 482 290 458 q 325 435 342 406 l 342 429 q 342 450 362 463 q 382 476 413 476 q 444 476 466 463 q 487 450 487 429 l 487 -169 q 487 -187 466 -202 q 444 -217 411 -217 z m 257 125 q 279 125 296 138 q 313 150 322 166 q 332 181 332 189 l 332 272 q 332 296 322 312 q 311 329 294 338 q 277 347 259 347 q 238 347 220 336 q 203 325 193 308 q 183 291 183 272 l 183 202 q 183 183 194 165 q 204 147 221 136 q 238 125 257 125 z"},"d":{"x_min":0,"x_max":533,"ha":533,"o":"m 202 -10 q 156 -10 116 20 q 76 50 52 98 q 28 147 28 202 l 28 272 q 28 330 52 378 q 76 425 116 454 q 156 482 205 482 q 251 482 284 458 q 316 435 332 406 l 332 701 q 332 722 355 735 q 378 748 411 748 q 444 748 466 735 q 487 722 487 701 l 487 48 q 487 30 466 15 q 444 0 411 0 q 383 0 362 15 q 342 30 342 48 l 342 70 q 327 39 288 14 q 250 -10 202 -10 z m 255 125 q 277 125 294 138 q 311 150 322 166 q 332 181 332 189 l 332 272 q 332 296 320 312 q 309 329 292 338 q 274 347 256 347 q 236 347 219 336 q 202 325 192 308 q 183 291 183 272 l 183 202 q 183 183 192 165 q 202 147 218 136 q 235 125 255 125 z"},"1":{"x_min":0,"x_max":308,"ha":308,"o":"m 179 0 q 150 0 126 12 q 101 24 101 48 l 101 557 l 72 539 q 65 535 58 533 q 52 531 47 531 q 25 531 12 550 q -2 570 -2 593 q -2 609 5 623 q 12 637 27 646 l 159 726 q 165 730 172 732 q 180 733 188 733 q 212 733 234 720 q 257 707 257 684 l 257 48 q 257 24 232 12 q 208 0 179 0 z"},"5":{"x_min":0,"x_max":521,"ha":521,"o":"m 260 -6 q 180 -6 124 21 q 69 48 41 90 q 13 133 13 180 q 13 221 34 235 q 54 249 91 249 q 142 249 156 232 q 169 215 169 191 q 169 171 180 158 q 192 144 212 137 q 232 130 256 130 q 299 130 323 152 q 347 175 347 224 l 347 243 q 347 293 323 317 q 299 341 258 341 l 106 341 q 72 341 59 358 q 46 374 46 402 q 46 410 46 416 q 47 423 48 431 l 75 683 q 77 706 84 718 q 90 731 103 731 l 422 731 q 445 731 456 710 q 467 689 467 663 q 467 638 456 616 q 445 595 422 595 l 203 595 l 193 461 l 258 461 q 327 461 382 440 q 438 419 470 371 q 503 323 503 243 l 503 224 q 503 141 470 90 q 437 39 382 16 q 327 -6 260 -6 z"}}}
